<svg width="170" height="147" viewBox="0 0 170 147" fill="none" xmlns="http://www.w3.org/2000/svg">
<path d="M167.51 53.1129C167.51 43.6493 159.838 35.9775 150.375 35.9775H17.5084C8.0448 35.9775 0.373047 43.6493 0.373047 53.1129C0.373047 62.5764 8.04479 70.2482 17.5084 70.2482H150.375C159.838 70.2482 167.51 62.5764 167.51 53.1129Z" fill="#FF6600"/>
<path d="M164.74 63.801C170.826 56.4464 169.694 45.678 162.213 39.7491L118.028 4.73527C110.547 -1.19363 99.5479 -0.0378919 93.462 7.31669C87.3761 14.6713 88.5077 25.4397 95.9894 31.3686L140.174 66.3824C147.655 72.3113 158.654 71.1556 164.74 63.801Z" fill="#4285F4"/>
<path d="M169.225 94.0061C169.225 84.5426 161.553 76.8708 152.09 76.8708H19.2234C9.75986 76.8708 2.0881 84.5426 2.0881 94.0061C2.0881 103.47 9.75984 111.141 19.2234 111.141H152.09C161.553 111.141 169.225 103.47 169.225 94.0061Z" fill="#0F9D58"/>
<path d="M77.2974 139.683C83.3833 132.329 82.2517 121.56 74.77 115.631L30.5858 80.6176C23.1041 74.6887 12.1054 75.8444 6.01948 83.199C-0.0663991 90.5536 1.06514 101.322 8.54686 107.251L52.7311 142.265C60.2128 148.194 71.2115 147.038 77.2974 139.683Z" fill="#FBBC04"/>
</svg>
