<svg width="68" height="68" viewBox="0 0 68 68" fill="none" xmlns="http://www.w3.org/2000/svg">
<path d="M2 58C2 53.7565 3.68571 49.6869 6.68629 46.6863C9.68687 43.6857 13.7565 42 18 42H50C54.2435 42 58.3131 43.6857 61.3137 46.6863C64.3143 49.6869 66 53.7565 66 58C66 60.1217 65.1571 62.1566 63.6569 63.6569C62.1566 65.1571 60.1217 66 58 66H10C7.87827 66 5.84344 65.1571 4.34315 63.6569C2.84285 62.1566 2 60.1217 2 58Z" stroke="black" stroke-width="3.5" stroke-linejoin="round"/>
<path d="M34 26C40.6274 26 46 20.6274 46 14C46 7.37258 40.6274 2 34 2C27.3726 2 22 7.37258 22 14C22 20.6274 27.3726 26 34 26Z" stroke="black" stroke-width="3.5"/>
</svg>
