<svg width="64" height="64" viewBox="0 0 64 64" fill="none" xmlns="http://www.w3.org/2000/svg">
<path d="M58.7709 34.1117C58.2487 33.5278 57.9607 32.7772 57.9607 32C57.9607 31.2228 58.2487 30.4722 58.7709 29.8883L62.9401 25.2809C63.3995 24.7775 63.6848 24.1441 63.755 23.4716C63.8252 22.799 63.6768 22.1219 63.3309 21.5374L56.8166 10.4669C56.4742 9.88308 55.953 9.42028 55.3272 9.1445C54.7014 8.86873 54.0029 8.79406 53.3314 8.93114L47.2079 10.147C46.4287 10.3051 45.6175 10.1777 44.9275 9.78862C44.2374 9.39959 43.7162 8.7759 43.4621 8.03526L41.4752 2.18006C41.2567 1.54455 40.8404 0.992585 40.2851 0.602164C39.7299 0.211744 39.0637 0.00261979 38.3809 0.00435127H25.3521C24.6419 -0.0320663 23.939 0.160894 23.3508 0.553762C22.7627 0.946629 22.3216 1.51781 22.095 2.18006L20.2709 8.03526C20.0169 8.7759 19.4956 9.39959 18.8056 9.78862C18.1155 10.1777 17.3043 10.3051 16.5252 10.147L10.2388 8.93114C9.60219 8.84277 8.95319 8.94145 8.37357 9.21475C7.79394 9.48804 7.30962 9.92373 6.98162 10.4669L0.467246 21.5374C0.112735 22.1154 -0.0466655 22.7887 0.0118351 23.4611C0.0703358 24.1334 0.343741 24.7704 0.792965 25.2809L4.92959 29.8883C5.45178 30.4722 5.73977 31.2228 5.73977 32C5.73977 32.7772 5.45178 33.5278 4.92959 34.1117L0.792965 38.7191C0.343741 39.2296 0.0703358 39.8666 0.0118351 40.5389C-0.0466655 41.2113 0.112735 41.8846 0.467246 42.4626L6.98162 53.5331C7.32394 54.1169 7.84516 54.5797 8.47097 54.8555C9.09679 55.1313 9.79525 55.2059 10.4668 55.0689L16.5903 53.853C17.3695 53.6949 18.1807 53.8223 18.8707 54.2114C19.5608 54.6004 20.082 55.2241 20.3361 55.9647L22.323 61.8199C22.5496 62.4822 22.9907 63.0534 23.5788 63.4462C24.167 63.8391 24.8699 64.0321 25.5802 63.9956H38.6089C39.2917 63.9974 39.9579 63.7883 40.5131 63.3978C41.0684 63.0074 41.4847 62.4554 41.7032 61.8199L43.6901 55.9647C43.9442 55.2241 44.4654 54.6004 45.1555 54.2114C45.8455 53.8223 46.6567 53.6949 47.4359 53.853L53.5594 55.0689C54.2309 55.2059 54.9294 55.1313 55.5552 54.8555C56.181 54.5797 56.7023 54.1169 57.0446 53.5331L63.5589 42.4626C63.9048 41.8781 64.0532 41.201 63.983 40.5284C63.9128 39.8559 63.6275 39.2225 63.1681 38.7191L58.7709 34.1117ZM53.9177 38.3991L56.5234 41.2787L52.3542 48.3818L48.5107 47.6139C46.1648 47.1428 43.7245 47.5343 41.653 48.7139C39.5816 49.8935 38.0231 51.7792 37.2735 54.013L36.0357 57.5965H27.6973L26.5247 53.949C25.7751 51.7152 24.2166 49.8295 22.1451 48.6499C20.0736 47.4703 17.6333 47.0788 15.2874 47.5499L11.444 48.3178L7.20962 41.2467L9.81537 38.3671C11.4178 36.6073 12.3036 34.3291 12.3036 31.968C12.3036 29.6069 11.4178 27.3287 9.81537 25.5689L7.20962 22.6893L11.3788 15.6502L15.2223 16.4181C17.5682 16.8892 20.0085 16.4977 22.08 15.3181C24.1515 14.1385 25.71 12.2528 26.4596 10.019L27.6973 6.40348H36.0357L37.2735 10.051C38.0231 12.2848 39.5816 14.1705 41.653 15.3501C43.7245 16.5297 46.1648 16.9212 48.5107 16.4501L52.3542 15.6822L56.5234 22.7853L53.9177 25.6649C52.3333 27.4207 51.4584 29.6857 51.4584 32.032C51.4584 34.3783 52.3333 36.6433 53.9177 38.3991ZM31.8665 19.2017C29.2897 19.2017 26.7707 19.9523 24.6281 21.3586C22.4856 22.7649 20.8156 24.7637 19.8295 27.1023C18.8434 29.4409 18.5854 32.0142 19.0881 34.4968C19.5908 36.9794 20.8317 39.2599 22.6538 41.0497C24.4759 42.8396 26.7974 44.0585 29.3247 44.5523C31.8521 45.0462 34.4717 44.7927 36.8524 43.8241C39.2331 42.8554 41.2679 41.215 42.6995 39.1103C44.1311 37.0057 44.8953 34.5313 44.8953 32C44.8953 28.6057 43.5226 25.3504 41.0792 22.9503C38.6359 20.5501 35.322 19.2017 31.8665 19.2017ZM31.8665 38.3991C30.5781 38.3991 29.3186 38.0238 28.2473 37.3207C27.176 36.6175 26.3411 35.6181 25.848 34.4488C25.355 33.2796 25.226 31.9929 25.4773 30.7516C25.7287 29.5103 26.3491 28.3701 27.2602 27.4751C28.1712 26.5802 29.332 25.9707 30.5956 25.7238C31.8593 25.4769 33.1691 25.6036 34.3595 26.088C35.5498 26.5723 36.5672 27.3925 37.283 28.4448C37.9988 29.4972 38.3809 30.7344 38.3809 32C38.3809 33.6972 37.6946 35.3248 36.4729 36.5249C35.2512 37.7249 33.5942 38.3991 31.8665 38.3991Z" fill="black"/>
</svg>
